<?xml version="1.0" encoding="UTF-8" standalone="no"?>
<!-- Created with Inkscape (http://www.inkscape.org/) -->

<svg
   xmlns:dc="http://purl.org/dc/elements/1.1/"
   xmlns:cc="http://creativecommons.org/ns#"
   xmlns:rdf="http://www.w3.org/1999/02/22-rdf-syntax-ns#"
   xmlns:svg="http://www.w3.org/2000/svg"
   xmlns="http://www.w3.org/2000/svg"
   xmlns:xlink="http://www.w3.org/1999/xlink"
   xmlns:sodipodi="http://sodipodi.sourceforge.net/DTD/sodipodi-0.dtd"
   xmlns:inkscape="http://www.inkscape.org/namespaces/inkscape"
   width="210mm"
   height="297mm"
   viewBox="0 0 210 297"
   version="1.1"
   id="svg8"
   inkscape:version="0.92.2 (5c3e80d, 2017-08-06)"
   sodipodi:docname="Logo.svg">
  <defs
     id="defs2" />
  <sodipodi:namedview
     id="base"
     pagecolor="#ffffff"
     bordercolor="#666666"
     borderopacity="1.0"
     inkscape:pageopacity="0.0"
     inkscape:pageshadow="2"
     inkscape:zoom="0.445235"
     inkscape:cx="222.12708"
     inkscape:cy="887.8034"
     inkscape:document-units="mm"
     inkscape:current-layer="layer1"
     showgrid="false"
     inkscape:snap-bbox="false"
     inkscape:window-width="1366"
     inkscape:window-height="715"
     inkscape:window-x="-8"
     inkscape:window-y="-8"
     inkscape:window-maximized="1" />
  <metadata
     id="metadata5">
    <rdf:RDF>
      <cc:Work
         rdf:about="">
        <dc:format>image/svg+xml</dc:format>
        <dc:type
           rdf:resource="http://purl.org/dc/dcmitype/StillImage" />
        <dc:title />
      </cc:Work>
    </rdf:RDF>
  </metadata>
  <g
     inkscape:label="Capa 1"
     inkscape:groupmode="layer"
     id="layer1">
    <text
       xml:space="preserve"
       style="font-style:normal;font-variant:normal;font-weight:normal;font-stretch:normal;font-size:10.58333302px;line-height:1.25;font-family:Pristina;-inkscape-font-specification:Pristina;letter-spacing:0px;word-spacing:0px;fill:#000000;fill-opacity:1;stroke:none;stroke-width:0.26458332;"
       x="66.145836"
       y="47.913689"
       id="text12"><tspan
         sodipodi:role="line"
         id="tspan10"
         x="66.145836"
         y="59.548496"
         style="stroke-width:0.26458332;-inkscape-font-specification:Pristina;font-family:Pristina;font-weight:normal;font-style:normal;font-stretch:normal;font-variant:normal;" /></text>
    <text
       xml:space="preserve"
       style="font-style:normal;font-variant:normal;font-weight:normal;font-stretch:normal;font-size:13.4886055px;line-height:1.25;font-family:'Men\'s Clothing';-inkscape-font-specification:'Men\'s Clothing';letter-spacing:0px;word-spacing:0px;fill:#000000;fill-opacity:1;stroke:none;stroke-width:0.33721513"
       x="91.346008"
       y="99.733505"
       id="text42"
       transform="scale(1.0384757,0.96294984)"><tspan
         sodipodi:role="line"
         id="tspan40"
         x="91.346008"
         y="111.9091"
         style="font-style:normal;font-variant:normal;font-weight:normal;font-stretch:normal;font-family:'Men\'s Clothing';-inkscape-font-specification:'Men\'s Clothing';stroke-width:0.33721513" /></text>
    <g
       id="g890"
       transform="matrix(2.4153146,0,0,2.2560255,-242.89275,-177.58433)">
      <text
         transform="scale(1.1173808,0.89495006)"
         id="text7099"
         y="100.64834"
         x="115.39416"
         style="font-style:normal;font-variant:normal;font-weight:normal;font-stretch:normal;font-size:17.37811089px;line-height:1.25;font-family:BROMO;-inkscape-font-specification:BROMO;letter-spacing:0px;word-spacing:0px;fill:#000000;fill-opacity:1;stroke:none;stroke-width:0.43445277"
         xml:space="preserve"><tspan
           style="font-style:normal;font-variant:normal;font-weight:normal;font-stretch:normal;font-family:'Enlighten your Destiny';-inkscape-font-specification:'Enlighten your Destiny';fill:#000000;fill-opacity:0.68341711;stroke-width:0.43445277"
           y="100.64834"
           x="115.39416"
           id="tspan7097"
           sodipodi:role="line">Luis</tspan></text>
      <text
         transform="scale(1.0013939,0.998608)"
         id="text7103"
         y="106.16281"
         x="102.55895"
         style="font-style:normal;font-variant:normal;font-weight:normal;font-stretch:normal;font-size:28.12262344px;line-height:1.25;font-family:BROMO;-inkscape-font-specification:BROMO;letter-spacing:0px;word-spacing:0px;fill:#000040;fill-opacity:1;stroke:none;stroke-width:0.70306557"
         xml:space="preserve"><tspan
           style="font-style:normal;font-variant:normal;font-weight:normal;font-stretch:normal;font-family:'Love Story Rough';-inkscape-font-specification:'Love Story Rough';fill:#001840;fill-opacity:1;stroke-width:0.70306557"
           y="106.16281"
           x="102.55895"
           id="tspan7101"
           sodipodi:role="line">Felipe</tspan></text>
      <text
         transform="scale(0.87844292,1.1383779)"
         id="text38"
         y="99.432976"
         x="152.16196"
         style="font-style:normal;font-variant:normal;font-weight:normal;font-stretch:normal;font-size:10.08926868px;line-height:1.25;letter-spacing:0px;word-spacing:0px;fill:#000000;fill-opacity:1;stroke:none;stroke-width:0.25223175"
         xml:space="preserve"><tspan
           style="font-style:normal;font-variant:normal;font-weight:normal;font-stretch:normal;font-family:'Men\'s Clothing';-inkscape-font-specification:'Men\'s Clothing';stroke-width:0.25223175"
           y="99.432976"
           x="152.16196"
           id="tspan36"
           sodipodi:role="line">b</tspan></text>
      <g
         id="text48"
         style="font-style:normal;font-variant:normal;font-weight:normal;font-stretch:normal;font-size:11.25434113px;line-height:1.25;letter-spacing:0px;word-spacing:0px;fill:#2d0000;fill-opacity:1;stroke:none;stroke-width:0.28135851"
         transform="matrix(1.0634023,0,0,0.94037788,-0.2228458,-0.29712773)"
         aria-label="Ayala">
        <path
           inkscape:connector-curvature="0"
           id="path50"
           style="font-style:normal;font-variant:normal;font-weight:normal;font-stretch:normal;font-family:'Saturday Nights Personal Use';-inkscape-font-specification:'Saturday Nights Personal Use';fill:#2d0000;fill-opacity:1;stroke-width:0.28135851"
           d="m 100.97917,116.99583 q 0.09,0.0113 0.18007,0.0113 0.10129,0 0.20257,0 0.31513,-0.70902 0.7653,-1.50808 0.45017,-0.79906 0.88909,-1.6769 0.45018,-0.87783 0.82157,-1.81194 0.38265,-0.93412 0.55146,-1.91324 l 1.00164,0.47268 q -0.045,0.24759 -0.10129,0.48394 -0.0563,0.22508 -0.13505,0.46142 h 0.0225 q 0.0225,0.85533 0.0675,1.73317 0.0338,0.75404 0.0675,1.64314 0.045,0.87784 0.0788,1.68815 0.0563,0 0.11254,0.0113 0.0675,0 0.1238,0 l -0.22509,0.20258 q 0.0338,0.84408 0.0563,1.40679 0.0225,0.56272 0.0225,0.58523 l -0.68651,0.16881 q 0,0 -0.0225,-0.15756 -0.0112,-0.1463 -0.0338,-0.40515 -0.0225,-0.25885 -0.0563,-0.60774 -0.0225,-0.36014 -0.0563,-0.77655 -0.3939,0.0675 -0.82156,0.16882 -0.41641,0.09 -0.83282,0.19132 -0.40516,0.10129 -0.78781,0.18007 -0.38265,0.0788 -0.70902,0.11254 -0.19133,0.39391 -0.25885,0.74279 -0.0675,0.34889 0.0225,0.67526 l -0.25885,0.16882 q -0.1238,-0.32638 -0.09,-0.72028 0.045,-0.3939 0.20258,-0.85533 -0.19132,0 -0.33763,-0.0563 z m 3.35379,-3.69143 q -0.60773,1.04666 -1.29425,1.95826 -0.67526,0.9116 -1.1817,1.71066 0.664,-0.0563 1.38428,-0.15756 0.72028,-0.11254 1.36177,-0.18007 -0.0675,-0.81031 -0.1463,-1.6769 -0.0675,-0.86658 -0.1238,-1.65439 z" />
        <path
           inkscape:connector-curvature="0"
           id="path52"
           style="font-style:normal;font-variant:normal;font-weight:normal;font-stretch:normal;font-family:'Saturday Nights Personal Use';-inkscape-font-specification:'Saturday Nights Personal Use';fill:#2d0000;fill-opacity:1;stroke-width:0.28135851"
           d="m 109.4116,113.53684 q -0.0563,0.15756 -0.10129,0.36013 -0.045,0.19133 -0.0788,0.40516 -0.0338,0.20258 -0.045,0.41641 -0.0112,0.20258 0,0.37139 0.045,0.94537 0.27011,1.69941 0.23634,0.74279 0.47268,1.39554 0.2476,0.6415 0.41641,1.22672 0.18007,0.58523 0.11254,1.18171 -0.045,0.43892 -0.25884,0.7878 -0.20258,0.36014 -0.50645,0.63024 -0.29261,0.27011 -0.66401,0.46143 -0.37139,0.20258 -0.75404,0.32638 -0.38264,0.1238 -0.74278,0.18007 -0.36014,0.0675 -0.6415,0.0675 -0.5177,0.0113 -1.13669,-0.13505 -0.61899,-0.13505 -1.13669,-0.43892 -0.52895,-0.29261 -0.85533,-0.74278 -0.33763,-0.45018 -0.28136,-1.05791 0.0338,-0.29262 0.19133,-0.54021 0.15756,-0.2476 0.48393,-0.36014 v 0.20258 q -0.20257,0.16881 -0.24759,0.37139 -0.0563,0.21383 -0.0563,0.31512 0.0225,0.46143 0.34888,0.84408 0.31512,0.38265 0.7653,0.65275 0.45017,0.2701 0.95662,0.41641 0.50644,0.14631 0.9116,0.14631 0.49519,0 1.00163,-0.09 0.5177,-0.09 0.92286,-0.32637 0.40516,-0.22509 0.63024,-0.63025 0.23634,-0.3939 0.16882,-1.02414 -0.0225,-0.34889 -0.20258,-0.87784 -0.16882,-0.5177 -0.38265,-1.14794 -0.21383,-0.61899 -0.42766,-1.29425 -0.20258,-0.67526 -0.29262,-1.33927 -0.12379,0.52896 -0.28135,1.00164 -0.14631,0.46143 -0.31513,0.81031 -0.15756,0.34889 -0.31512,0.55146 -0.15756,0.20258 -0.29261,0.18007 -0.2701,-0.0338 -0.43892,-0.38264 -0.16881,-0.34889 -0.25885,-0.85533 -0.09,-0.50645 -0.11254,-1.09168 -0.0338,-0.59648 -0.0225,-1.11418 0,-0.52895 0.0225,-0.90034 0.0225,-0.38265 0.045,-0.47269 l 1.02415,-0.28135 q -0.0225,0.25885 -0.045,0.63024 -0.0225,0.37139 -0.045,0.7878 -0.0225,0.41641 -0.045,0.86659 -0.0113,0.43892 -0.0113,0.84407 0.0113,0.40516 0.0338,0.74279 0.0338,0.33763 0.10128,0.55146 0.09,-0.0338 0.20258,-0.23634 0.11255,-0.20258 0.23634,-0.54021 0.1238,-0.33763 0.2476,-0.77655 0.1238,-0.45017 0.22509,-0.97912 -0.0113,-0.14631 -0.0113,-0.28136 0.0113,-0.13505 0.0338,-0.27011 0.0338,-0.2701 0.0675,-0.55146 0.045,-0.28136 0.13505,-0.50645 z" />
        <path
           inkscape:connector-curvature="0"
           id="path54"
           style="font-style:normal;font-variant:normal;font-weight:normal;font-stretch:normal;font-family:'Saturday Nights Personal Use';-inkscape-font-specification:'Saturday Nights Personal Use';fill:#2d0000;fill-opacity:1;stroke-width:0.28135851"
           d="m 109.91722,116.56816 q 0,-0.42766 0.0788,-0.92285 0.0675,-0.50645 0.2701,-0.94537 0.20258,-0.45017 0.56272,-0.7878 0.36014,-0.34889 0.93411,-0.47268 l 0.47268,0.61899 0.92285,-0.25885 q -0.0338,0.3939 -0.0788,0.95661 -0.045,0.56272 -0.0788,1.14795 -0.0225,0.57397 -0.0113,1.11418 0.0225,0.52895 0.11254,0.84407 0.11255,-0.0338 0.25885,-0.32637 0.14631,-0.29262 0.29262,-0.7653 0.15756,-0.47268 0.28135,-1.09167 0.13506,-0.61899 0.22509,-1.31676 l 0.15756,0.0338 q -0.0563,0.72027 -0.22508,1.47431 -0.16882,0.74279 -0.38265,1.35053 -0.21383,0.59648 -0.45018,0.96787 -0.22508,0.37139 -0.40515,0.34888 -0.27011,-0.0338 -0.43892,-0.33763 -0.15756,-0.30386 -0.2476,-0.74278 -0.0788,-0.45018 -0.11254,-0.96788 -0.0225,-0.52895 -0.0112,-1.01289 -0.13506,0.38265 -0.31513,0.87784 -0.18007,0.48394 -0.34888,0.93411 -0.16882,0.45017 -0.31512,0.7878 -0.13505,0.33764 -0.18007,0.41642 -0.20258,0.0675 -0.38265,-0.10129 -0.16881,-0.16882 -0.29261,-0.45018 -0.13505,-0.29261 -0.21383,-0.664 -0.0788,-0.3714 -0.0788,-0.70903 z m 1.18171,0.9116 q 0.0338,-0.0788 0.15756,-0.42766 0.13505,-0.36014 0.29261,-0.7878 0.15756,-0.43892 0.30387,-0.84408 0.14631,-0.40516 0.21383,-0.58523 0.0113,-0.22508 0.0113,-0.3939 0.0113,-0.18007 0.0338,-0.2701 l -0.37139,-0.48394 q -0.19133,0.09 -0.36014,0.36014 -0.15756,0.27011 -0.28136,0.6415 -0.1238,0.36014 -0.20258,0.7878 -0.0675,0.41641 -0.0788,0.81031 0,0.38265 0.0675,0.70903 0.0675,0.31512 0.21383,0.48393 z" />
        <path
           inkscape:connector-curvature="0"
           id="path56"
           style="font-style:normal;font-variant:normal;font-weight:normal;font-stretch:normal;font-family:'Saturday Nights Personal Use';-inkscape-font-specification:'Saturday Nights Personal Use';fill:#2d0000;fill-opacity:1;stroke-width:0.28135851"
           d="m 115.68033,109.75929 q 0.11254,0.16881 0.11254,0.48393 0.0113,0.31513 -0.045,0.72028 -0.0563,0.40516 -0.16881,0.86659 -0.10129,0.45017 -0.23634,0.88909 -0.1238,0.43892 -0.25885,0.83282 -0.13506,0.3939 -0.2476,0.67526 0,0.43892 0.0112,0.96787 0.0225,0.52896 0.0563,1.0354 0.0338,0.50645 0.09,0.94537 0.0563,0.42766 0.1238,0.68651 0.11254,-0.0338 0.25885,-0.32637 0.14631,-0.29262 0.29261,-0.7653 0.15756,-0.47268 0.28136,-1.09167 0.13505,-0.61899 0.22509,-1.31676 l 0.15756,0.0338 q -0.0563,0.72027 -0.22509,1.47431 -0.16881,0.74279 -0.38265,1.35053 -0.21383,0.60773 -0.45017,0.97912 -0.22509,0.3714 -0.40516,0.33763 -0.29261,-0.0563 -0.47268,-0.40515 -0.18007,-0.36014 -0.2701,-0.9116 -0.09,-0.55147 -0.11255,-1.23798 -0.0225,-0.69777 0,-1.44056 0.0225,-0.72028 0.0788,-1.41805 0.0563,-0.70902 0.15756,-1.31675 0.10129,-0.60774 0.2476,-1.08042 0.15756,-0.48394 0.36014,-0.75404 z m -0.0788,0.38264 q -0.20258,0.34889 -0.34889,0.86659 -0.13505,0.50644 -0.22509,1.0354 -0.0788,0.52895 -0.13505,1.01289 -0.045,0.47268 -0.0563,0.75404 0.10129,-0.29261 0.23634,-0.75404 0.13505,-0.47268 0.30387,-1.12544 0.19132,-0.74278 0.21383,-1.21546 0.0338,-0.48394 0.0113,-0.57398 z" />
        <path
           inkscape:connector-curvature="0"
           id="path58"
           style="font-style:normal;font-variant:normal;font-weight:normal;font-stretch:normal;font-family:'Saturday Nights Personal Use';-inkscape-font-specification:'Saturday Nights Personal Use';fill:#2d0000;fill-opacity:1;stroke-width:0.28135851"
           d="m 115.56638,116.56816 q 0,-0.42766 0.0788,-0.92285 0.0675,-0.50645 0.2701,-0.94537 0.20258,-0.45017 0.56272,-0.7878 0.36014,-0.34889 0.93411,-0.47268 l 0.47268,0.61899 0.92286,-0.25885 q -0.0338,0.3939 -0.0788,0.95661 -0.045,0.56272 -0.0788,1.14795 -0.0225,0.57397 -0.0112,1.11418 0.0225,0.52895 0.11254,0.84407 0.11255,-0.0338 0.25885,-0.32637 0.14631,-0.29262 0.29262,-0.7653 0.15756,-0.47268 0.28136,-1.09167 0.13505,-0.61899 0.22508,-1.31676 l 0.15756,0.0338 q -0.0563,0.72027 -0.22508,1.47431 -0.16882,0.74279 -0.38265,1.35053 -0.21383,0.59648 -0.45018,0.96787 -0.22508,0.37139 -0.40515,0.34888 -0.27011,-0.0338 -0.43892,-0.33763 -0.15756,-0.30386 -0.2476,-0.74278 -0.0788,-0.45018 -0.11254,-0.96788 -0.0225,-0.52895 -0.0113,-1.01289 -0.13506,0.38265 -0.31513,0.87784 -0.18007,0.48394 -0.34888,0.93411 -0.16882,0.45017 -0.31512,0.7878 -0.13505,0.33764 -0.18007,0.41642 -0.20258,0.0675 -0.38265,-0.10129 -0.16881,-0.16882 -0.29261,-0.45018 -0.13505,-0.29261 -0.21383,-0.664 -0.0788,-0.3714 -0.0788,-0.70903 z m 1.1817,0.9116 q 0.0338,-0.0788 0.15756,-0.42766 0.13505,-0.36014 0.29261,-0.7878 0.15757,-0.43892 0.30387,-0.84408 0.14631,-0.40516 0.21383,-0.58523 0.0113,-0.22508 0.0113,-0.3939 0.0113,-0.18007 0.0338,-0.2701 l -0.37139,-0.48394 q -0.19133,0.09 -0.36014,0.36014 -0.15756,0.27011 -0.28136,0.6415 -0.1238,0.36014 -0.20258,0.7878 -0.0675,0.41641 -0.0788,0.81031 0,0.38265 0.0675,0.70903 0.0675,0.31512 0.21383,0.48393 z" />
      </g>
      <use
         id="use866"
         xlink:href="#text7099"
         y="0"
         x="0"
         width="100%"
         height="100%" />
      <use
         id="use868"
         xlink:href="#text7103"
         y="0"
         x="0"
         width="100%"
         height="100%" />
      <use
         id="use870"
         xlink:href="#text38"
         y="0"
         x="0"
         width="100%"
         height="100%" />
      <use
         id="use872"
         xlink:href="#text48"
         y="0"
         x="0"
         width="100%"
         height="100%" />
    </g>
  </g>
</svg>
